<?xml version="1.0" encoding="UTF-8"?>
<svg xmlns="http://www.w3.org/2000/svg" xmlns:xlink="http://www.w3.org/1999/xlink" width="0" height="0">
    <defs>// for semantics: https://developer.mozilla.org/en-US/docs/Web/SVG/Element/defs
        <symbol id="checkbox">
            <path d="M16 0H2C0.89 0 0 0.9 0 2V16C0 17.1 0.89 18 2 18H16C17.11 18 18 17.1 18 16V2C18 0.9 17.11 0 16 0ZM7 14L2 9L3.41 7.59L7 11.17L14.59 3.58L16 5L7 14Z"
                  fill="currentColor"/>
        </symbol>
        <symbol id="close" fill="currentColor">
            <path d="M4.94 3.99998L7.80667 1.13998C7.9322 1.01445 8.00273 0.844182 8.00273 0.666648C8.00273 0.489113 7.9322 0.31885 7.80667 0.193315C7.68113 0.0677787 7.51087 -0.00274658 7.33333 -0.00274658C7.1558 -0.00274658 6.98554 0.0677787 6.86 0.193315L4 3.05998L1.14 0.193315C1.01446 0.0677787 0.844201 -0.00274658 0.666667 -0.00274658C0.489133 -0.00274658 0.318869 0.0677787 0.193334 0.193315C0.0677978 0.31885 -0.00272751 0.489113 -0.00272751 0.666648C-0.00272751 0.844182 0.0677978 1.01445 0.193334 1.13998L3.06 3.99998L0.193334 6.85998C0.130848 6.92196 0.081252 6.99569 0.0474062 7.07693C0.0135604 7.15817 -0.00386524 7.24531 -0.00386524 7.33331C-0.00386524 7.42132 0.0135604 7.50846 0.0474062 7.5897C0.081252 7.67094 0.130848 7.74467 0.193334 7.80665C0.255309 7.86913 0.329043 7.91873 0.410282 7.95258C0.491522 7.98642 0.578659 8.00385 0.666667 8.00385C0.754675 8.00385 0.841812 7.98642 0.923051 7.95258C1.00429 7.91873 1.07802 7.86913 1.14 7.80665L4 4.93998L6.86 7.80665C6.92198 7.86913 6.99571 7.91873 7.07695 7.95258C7.15819 7.98642 7.24533 8.00385 7.33333 8.00385C7.42134 8.00385 7.50848 7.98642 7.58972 7.95258C7.67096 7.91873 7.74469 7.86913 7.80667 7.80665C7.86915 7.74467 7.91875 7.67094 7.95259 7.5897C7.98644 7.50846 8.00387 7.42132 8.00387 7.33331C8.00387 7.24531 7.98644 7.15817 7.95259 7.07693C7.91875 6.99569 7.86915 6.92196 7.80667 6.85998L4.94 3.99998Z"
                  fill="white"/>
        </symbol>
        <symbol id="delete" fill="currentColor">
            <path d="M14 4.00108H10.6667V2.88775C10.651 2.46096 10.4668 2.05779 10.1544 1.76661C9.84195 1.47543 9.42683 1.32001 9 1.33442H7C6.57316 1.32001 6.15804 1.47543 5.84561 1.76661C5.53319 2.05779 5.34897 2.46096 5.33333 2.88775V4.00108H1.99999C1.82318 4.00108 1.65361 4.07132 1.52859 4.19634C1.40357 4.32137 1.33333 4.49094 1.33333 4.66775C1.33333 4.84456 1.40357 5.01413 1.52859 5.13915C1.65361 5.26418 1.82318 5.33441 1.99999 5.33441H2.66666V12.6677C2.66666 13.1982 2.87738 13.7069 3.25245 14.082C3.62752 14.457 4.13623 14.6677 4.66666 14.6677H11.3333C11.8638 14.6677 12.3725 14.457 12.7475 14.082C13.1226 13.7069 13.3333 13.1982 13.3333 12.6677V5.33441H14C14.1768 5.33441 14.3464 5.26418 14.4714 5.13915C14.5964 5.01413 14.6667 4.84456 14.6667 4.66775C14.6667 4.49094 14.5964 4.32137 14.4714 4.19634C14.3464 4.07132 14.1768 4.00108 14 4.00108ZM6.66666 2.88775C6.66666 2.78108 6.80666 2.66775 7 2.66775H9C9.19333 2.66775 9.33333 2.78108 9.33333 2.88775V4.00108H6.66666V2.88775ZM12 12.6677C12 12.8446 11.9298 13.0141 11.8047 13.1392C11.6797 13.2642 11.5101 13.3344 11.3333 13.3344H4.66666C4.48985 13.3344 4.32028 13.2642 4.19526 13.1392C4.07023 13.0141 3.99999 12.8446 3.99999 12.6677V5.33441H12V12.6677Z"
                  fill="currentColor"/>
        </symbol>
        <symbol id="edit" fill="currentColor">
            <g clip-path="url(#clip0_5928_6702)">
                <path d="M12.6667 13.3345H3.33334C3.15653 13.3345 2.98696 13.4047 2.86193 13.5297C2.73691 13.6548 2.66667 13.8243 2.66667 14.0011C2.66667 14.178 2.73691 14.3475 2.86193 14.4725C2.98696 14.5976 3.15653 14.6678 3.33334 14.6678H12.6667C12.8435 14.6678 13.0131 14.5976 13.1381 14.4725C13.2631 14.3475 13.3333 14.178 13.3333 14.0011C13.3333 13.8243 13.2631 13.6548 13.1381 13.5297C13.0131 13.4047 12.8435 13.3345 12.6667 13.3345Z"
                />
                <path d="M3.33333 12.0012H3.39333L6.17333 11.7479C6.47786 11.7175 6.76269 11.5834 6.98 11.3679L12.98 5.36787C13.2129 5.12185 13.3387 4.79355 13.33 4.4549C13.3212 4.11625 13.1786 3.79488 12.9333 3.56121L11.1067 1.73454C10.8683 1.5106 10.5559 1.38211 10.2289 1.37351C9.90191 1.3649 9.58319 1.47679 9.33333 1.68787L3.33333 7.68787C3.11784 7.90518 2.98367 8.19001 2.95333 8.49454L2.66667 11.2745C2.65769 11.3722 2.67036 11.4706 2.70377 11.5628C2.73719 11.655 2.79053 11.7387 2.86 11.8079C2.92229 11.8697 2.99617 11.9185 3.0774 11.9517C3.15862 11.9849 3.2456 12.0017 3.33333 12.0012ZM10.18 2.66787L12 4.48787L10.6667 5.78787L8.88 4.00121L10.18 2.66787ZM4.24667 8.60787L8 4.88121L9.8 6.68121L6.06667 10.4145L4.06667 10.6012L4.24667 8.60787Z"
                />
            </g>
            <defs>
                <clipPath id="clip0_5928_6702">
                    <rect width="16" height="16" fill="white" transform="translate(0 0.000976562)"/>
                </clipPath>
            </defs>
        </symbol>
        <symbol id="eye-outline" fill="currentColor">
            <g clip-path="url(#clip0_5661_2355)">
                <path d="M18.225 9.58334C17.6917 8.65834 14.7583 4.01667 9.775 4.16667C5.16667 4.28334 2.5 8.33334 1.775 9.58334C1.70186 9.71002 1.66335 9.85372 1.66335 10C1.66335 10.1463 1.70186 10.29 1.775 10.4167C2.3 11.325 5.10833 15.8333 10.0167 15.8333H10.225C14.8333 15.7167 17.5083 11.6667 18.225 10.4167C18.2981 10.29 18.3366 10.1463 18.3366 10C18.3366 9.85372 18.2981 9.71002 18.225 9.58334ZM10.1833 14.1667C6.59167 14.25 4.25 11.175 3.51667 10C4.35 8.65834 6.525 5.91667 9.85833 5.83334C13.4333 5.74167 15.7833 8.82501 16.525 10C15.6667 11.3417 13.5167 14.0833 10.1833 14.1667Z"
                      fill="white"/>
                <path d="M10 7.08334C9.42314 7.08334 8.85923 7.2544 8.37959 7.57489C7.89994 7.89538 7.52611 8.3509 7.30535 8.88385C7.0846 9.4168 7.02684 10.0032 7.13938 10.569C7.25192 11.1348 7.5297 11.6545 7.93761 12.0624C8.34551 12.4703 8.86521 12.7481 9.43099 12.8606C9.99676 12.9732 10.5832 12.9154 11.1162 12.6947C11.6491 12.4739 12.1046 12.1001 12.4251 11.6204C12.7456 11.1408 12.9167 10.5769 12.9167 10C12.9167 9.22646 12.6094 8.4846 12.0624 7.93762C11.5154 7.39063 10.7735 7.08334 10 7.08334ZM10 11.25C9.75277 11.25 9.5111 11.1767 9.30554 11.0393C9.09998 10.902 8.93976 10.7068 8.84515 10.4784C8.75054 10.25 8.72579 9.99862 8.77402 9.75615C8.82225 9.51367 8.9413 9.29094 9.11612 9.11613C9.29093 8.94131 9.51366 8.82226 9.75614 8.77403C9.99861 8.7258 10.2499 8.75055 10.4784 8.84516C10.7068 8.93977 10.902 9.09999 11.0393 9.30555C11.1767 9.51111 11.25 9.75278 11.25 10C11.25 10.3315 11.1183 10.6495 10.8839 10.8839C10.6495 11.1183 10.3315 11.25 10 11.25Z"
                      fill="white"/>
            </g>
            <defs>
                <clipPath id="clip0_5661_2355">
                    <rect width="20" height="20" fill="white"/>
                </clipPath>
            </defs>
        </symbol>
        <symbol id="log-out">
            <g clip-path="url(#clip0_5928_3635)">
                <path d="M4.66669 4.00081C4.8435 4.00081 5.01307 3.93058 5.13809 3.80555C5.26312 3.68053 5.33335 3.51096 5.33335 3.33415C5.33335 3.15734 5.26312 2.98777 5.13809 2.86274C5.01307 2.73772 4.8435 2.66748 4.66669 2.66748H3.33335C3.15654 2.66748 2.98697 2.73772 2.86195 2.86274C2.73693 2.98777 2.66669 3.15734 2.66669 3.33415V12.6675C2.66669 12.8443 2.73693 13.0139 2.86195 13.1389C2.98697 13.2639 3.15654 13.3341 3.33335 13.3341H4.66669C4.8435 13.3341 5.01307 13.2639 5.13809 13.1389C5.26312 13.0139 5.33335 12.8443 5.33335 12.6675C5.33335 12.4907 5.26312 12.3211 5.13809 12.1961C5.01307 12.0711 4.8435 12.0008 4.66669 12.0008H4.00002V4.00081H4.66669Z"
                      fill="white"/>
                <path d="M13.88 7.61411L12 4.94745C11.898 4.80372 11.7433 4.70621 11.5697 4.67623C11.396 4.64625 11.2176 4.68623 11.0733 4.78745C11.0012 4.83797 10.9399 4.90228 10.8927 4.97665C10.8456 5.05103 10.8137 5.134 10.7988 5.22077C10.784 5.30755 10.7864 5.39641 10.8061 5.48223C10.8257 5.56805 10.8622 5.64913 10.9133 5.72078L12.06 7.33411H6.66667C6.48986 7.33411 6.32029 7.40435 6.19526 7.52938C6.07024 7.6544 6 7.82397 6 8.00078C6 8.17759 6.07024 8.34716 6.19526 8.47219C6.32029 8.59721 6.48986 8.66745 6.66667 8.66745H12L10.8 10.2674C10.7475 10.3375 10.7093 10.4172 10.6875 10.502C10.6658 10.5868 10.661 10.6751 10.6734 10.7617C10.6857 10.8484 10.7151 10.9318 10.7597 11.0071C10.8043 11.0824 10.8633 11.1483 10.9333 11.2008C11.0487 11.2873 11.1891 11.3341 11.3333 11.3341C11.4368 11.3341 11.5389 11.31 11.6315 11.2637C11.724 11.2174 11.8046 11.1502 11.8667 11.0674L13.8667 8.40078C13.952 8.28803 13.9994 8.15104 14.0018 8.00962C14.0041 7.86821 13.9615 7.7297 13.88 7.61411Z"
                      fill="white"/>
            </g>
            <defs>
                <clipPath id="clip0_5928_3635">
                    <rect width="16" height="16" fill="white" transform="translate(0 0.000976562)"/>
                </clipPath>
            </defs>
        </symbol>
        <symbol id="more">
            <circle cx="12" cy="12" r="8.5" stroke="white"/>
            <g clip-path="url(#clip0_52363_14059)">
                <path d="M12 13C12.5523 13 13 12.5523 13 12C13 11.4477 12.5523 11 12 11C11.4477 11 11 11.4477 11 12C11 12.5523 11.4477 13 12 13Z"
                      fill="white"/>
                <path d="M12 9.5C12.5523 9.5 13 9.05228 13 8.5C13 7.94772 12.5523 7.5 12 7.5C11.4477 7.5 11 7.94772 11 8.5C11 9.05228 11.4477 9.5 12 9.5Z"
                      fill="white"/>
                <path d="M12 16.5C12.5523 16.5 13 16.0523 13 15.5C13 14.9477 12.5523 14.5 12 14.5C11.4477 14.5 11 14.9477 11 15.5C11 16.0523 11.4477 16.5 12 16.5Z"
                      fill="white"/>
            </g>
            <defs>
                <clipPath id="clip0_52363_14059">
                    <rect width="12" height="12" fill="white" transform="translate(6 6)"/>
                </clipPath>
            </defs>
        </symbol>
        <symbol id="person-outline" fill="currentColor">
            <g clip-path="url(#clip0_5928_3613)">
                <path d="M7.99998 7.33431C8.5274 7.33431 9.04297 7.17791 9.4815 6.8849C9.92003 6.59188 10.2618 6.1754 10.4637 5.68813C10.6655 5.20086 10.7183 4.66469 10.6154 4.1474C10.5125 3.63012 10.2585 3.15497 9.8856 2.78203C9.51266 2.40909 9.0375 2.15511 8.52022 2.05222C8.00294 1.94932 7.46676 2.00213 6.97949 2.20397C6.49222 2.4058 6.07574 2.74759 5.78273 3.18612C5.48971 3.62465 5.33331 4.14023 5.33331 4.66764C5.33331 5.37489 5.61426 6.05317 6.11436 6.55326C6.61446 7.05336 7.29274 7.33431 7.99998 7.33431ZM7.99998 3.33431C8.26369 3.33431 8.52147 3.41251 8.74074 3.55902C8.96001 3.70553 9.1309 3.91376 9.23182 4.1574C9.33274 4.40103 9.35914 4.66912 9.30769 4.92776C9.25625 5.18641 9.12926 5.42398 8.94279 5.61045C8.75632 5.79692 8.51874 5.92391 8.2601 5.97536C8.00146 6.0268 7.73337 6.0004 7.48974 5.89948C7.2461 5.79857 7.03786 5.62767 6.89135 5.4084C6.74485 5.18914 6.66665 4.93135 6.66665 4.66764C6.66665 4.31402 6.80712 3.97488 7.05717 3.72484C7.30722 3.47479 7.64636 3.33431 7.99998 3.33431Z"
                      fill="white"/>
                <path d="M7.99998 8.66748C6.7623 8.66748 5.57532 9.15915 4.70015 10.0343C3.82498 10.9095 3.33331 12.0965 3.33331 13.3341C3.33331 13.511 3.40355 13.6805 3.52858 13.8056C3.6536 13.9306 3.82317 14.0008 3.99998 14.0008C4.17679 14.0008 4.34636 13.9306 4.47138 13.8056C4.59641 13.6805 4.66665 13.511 4.66665 13.3341C4.66665 12.4501 5.01784 11.6022 5.64296 10.9771C6.26808 10.352 7.11592 10.0008 7.99998 10.0008C8.88403 10.0008 9.73188 10.352 10.357 10.9771C10.9821 11.6022 11.3333 12.4501 11.3333 13.3341C11.3333 13.511 11.4036 13.6805 11.5286 13.8056C11.6536 13.9306 11.8232 14.0008 12 14.0008C12.1768 14.0008 12.3464 13.9306 12.4714 13.8056C12.5964 13.6805 12.6666 13.511 12.6666 13.3341C12.6666 12.0965 12.175 10.9095 11.2998 10.0343C10.4246 9.15915 9.23766 8.66748 7.99998 8.66748Z"
                      fill="white"/>
            </g>
            <defs>
                <clipPath id="clip0_5928_3613">
                    <rect width="16" height="16" fill="white" transform="translate(0 0.000976562)"/>
                </clipPath>
            </defs>
        </symbol>
        <symbol id="play-circle-icon" fill="currentColor">
            <g clip-path="url(#clip0_5928_6698)">
                <path d="M8 1.33447C6.68146 1.33447 5.39252 1.72547 4.2962 2.45801C3.19987 3.19055 2.34539 4.23174 1.8408 5.44992C1.33622 6.66809 1.20419 8.00853 1.46143 9.30174C1.71866 10.5949 2.3536 11.7828 3.28595 12.7152C4.2183 13.6475 5.40619 14.2825 6.6994 14.5397C7.9926 14.7969 9.33305 14.6649 10.5512 14.1603C11.7694 13.6558 12.8106 12.8013 13.5431 11.7049C14.2757 10.6086 14.6667 9.31968 14.6667 8.00114C14.6667 7.12566 14.4942 6.25875 14.1592 5.44992C13.8242 4.64108 13.3331 3.90615 12.714 3.28709C12.095 2.66804 11.3601 2.17697 10.5512 1.84194C9.74238 1.50691 8.87548 1.33447 8 1.33447ZM8 13.3345C6.94516 13.3345 5.91402 13.0217 5.03696 12.4356C4.15989 11.8496 3.47631 11.0167 3.07264 10.0421C2.66897 9.06758 2.56336 7.99522 2.76914 6.96066C2.97493 5.92609 3.48288 4.97578 4.22876 4.2299C4.97464 3.48402 5.92495 2.97607 6.95952 2.77028C7.99408 2.5645 9.06644 2.67011 10.041 3.07378C11.0155 3.47745 11.8485 4.16104 12.4345 5.0381C13.0205 5.91516 13.3333 6.94631 13.3333 8.00114C13.3333 9.41563 12.7714 10.7722 11.7712 11.7724C10.771 12.7726 9.41449 13.3345 8 13.3345Z"
                />
                <path d="M8.22666 4.9674C8.06331 4.81687 7.85932 4.71765 7.64004 4.68209C7.42077 4.64654 7.19588 4.6762 6.99333 4.7674C6.7967 4.84694 6.62825 4.9833 6.5095 5.15905C6.39075 5.3348 6.32709 5.54196 6.32666 5.75407V10.2474C6.32709 10.4595 6.39075 10.6667 6.5095 10.8424C6.62825 11.0182 6.7967 11.1545 6.99333 11.2341C7.13784 11.2996 7.29464 11.3337 7.45333 11.3341C7.73927 11.3328 8.01467 11.226 8.22666 11.0341L10.6667 8.7874C10.7758 8.68747 10.8629 8.56593 10.9226 8.43049C10.9822 8.29506 11.013 8.14871 11.013 8.00074C11.013 7.85276 10.9822 7.70641 10.9226 7.57098C10.8629 7.43555 10.7758 7.314 10.6667 7.21407L8.22666 4.9674ZM7.66666 9.73407V6.2674L9.53999 8.00074L7.66666 9.73407Z"
                />
            </g>
            <defs>
                <clipPath id="clip0_5928_6698">
                    <rect width="16" height="16" fill="white" transform="translate(0 0.000976562)"/>
                </clipPath>
            </defs>
        </symbol>
        <symbol id="search" fill="currentColor">
            <path d="M15.2583 14.075L12.425 11.25C13.3392 10.0854 13.8352 8.64721 13.8333 7.16667C13.8333 5.84813 13.4423 4.5592 12.7098 3.46287C11.9773 2.36654 10.9361 1.51206 9.71789 1.00747C8.49972 0.502889 7.15927 0.370866 5.86607 0.628101C4.57286 0.885336 3.38497 1.52027 2.45262 2.45262C1.52027 3.38497 0.885336 4.57286 0.628101 5.86607C0.370866 7.15927 0.502889 8.49972 1.00747 9.71789C1.51206 10.9361 2.36654 11.9773 3.46287 12.7098C4.5592 13.4423 5.84813 13.8333 7.16667 13.8333C8.64721 13.8352 10.0854 13.3392 11.25 12.425L14.075 15.2583C14.1525 15.3364 14.2446 15.3984 14.3462 15.4407C14.4477 15.4831 14.5567 15.5048 14.6667 15.5048C14.7767 15.5048 14.8856 15.4831 14.9871 15.4407C15.0887 15.3984 15.1809 15.3364 15.2583 15.2583C15.3364 15.1809 15.3984 15.0887 15.4407 14.9871C15.4831 14.8856 15.5048 14.7767 15.5048 14.6667C15.5048 14.5567 15.4831 14.4477 15.4407 14.3462C15.3984 14.2446 15.3364 14.1525 15.2583 14.075ZM2.16667 7.16667C2.16667 6.17776 2.45991 5.21106 3.00932 4.38882C3.55873 3.56657 4.33962 2.92571 5.25325 2.54727C6.16688 2.16883 7.17222 2.06982 8.14212 2.26274C9.11203 2.45567 10.0029 2.93187 10.7022 3.63114C11.4015 4.3304 11.8777 5.22131 12.0706 6.19122C12.2635 7.16112 12.1645 8.16646 11.7861 9.08009C11.4076 9.99372 10.7668 10.7746 9.94452 11.324C9.12227 11.8734 8.15558 12.1667 7.16667 12.1667C5.84059 12.1667 4.56882 11.6399 3.63114 10.7022C2.69345 9.76452 2.16667 8.49275 2.16667 7.16667Z"
                  fill="#808080"/>
        </symbol>

        <symbol id="chevron-down" fill="currentColor">
            <path d="M0.676105 1.30553C0.675801 1.14977 0.730051 0.998809 0.829438 0.878868C0.885405 0.811362 0.954139 0.755561 1.0317 0.71466C1.10927 0.673759 1.19414 0.648561 1.28146 0.640511C1.36877 0.63246 1.45682 0.641715 1.54056 0.667744C1.62429 0.693774 1.70207 0.736067 1.76944 0.792201L5.34277 3.77887L8.92277 0.898869C8.99096 0.843492 9.06943 0.802137 9.15365 0.777183C9.23788 0.752228 9.32621 0.744166 9.41356 0.753458C9.50091 0.762751 9.58557 0.789216 9.66266 0.831332C9.73975 0.873447 9.80776 0.930384 9.86277 0.998869C9.92346 1.06785 9.96924 1.14862 9.99723 1.23613C10.0252 1.32364 10.0348 1.41599 10.0254 1.50738C10.016 1.59878 9.98787 1.68725 9.94267 1.76724C9.89747 1.84722 9.83622 1.91701 9.76277 1.9722L5.76277 5.1922C5.64348 5.29026 5.49385 5.34386 5.33944 5.34386C5.18502 5.34386 5.03539 5.29026 4.91611 5.1922L0.916105 1.85887C0.835427 1.79199 0.771651 1.70703 0.729952 1.61089C0.688253 1.51475 0.669805 1.41014 0.676105 1.30553Z"/>
        </symbol>
        <symbol id="chevron-up" fill="currentColor">
            <path d="M7.77078 3.25718C7.77101 3.374 7.73032 3.48722 7.65578 3.57718C7.61381 3.62781 7.56226 3.66966 7.50408 3.70033C7.44591 3.73101 7.38226 3.74991 7.31677 3.75594C7.25128 3.76198 7.18525 3.75504 7.12244 3.73552C7.05964 3.716 7.00131 3.68428 6.95078 3.64218L4.27078 1.40218L1.58578 3.56218C1.53464 3.60371 1.47579 3.63473 1.41262 3.65344C1.34945 3.67216 1.28321 3.6782 1.21769 3.67123C1.15218 3.66426 1.08869 3.64442 1.03087 3.61283C0.97305 3.58124 0.922045 3.53854 0.880783 3.48718C0.835265 3.43544 0.800931 3.37486 0.779937 3.30923C0.758942 3.2436 0.75174 3.17434 0.758783 3.10579C0.765825 3.03724 0.78696 2.97089 0.820861 2.9109C0.854762 2.85091 0.900697 2.79857 0.955783 2.75718L3.95578 0.342177C4.04525 0.268636 4.15747 0.228433 4.27328 0.228433C4.3891 0.228433 4.50132 0.268636 4.59078 0.342177L7.59078 2.84218C7.65129 2.89234 7.69912 2.95605 7.7304 3.02816C7.76167 3.10026 7.77551 3.17872 7.77078 3.25718Z"
                  />
        </symbol>
        <symbol id="star-outlined" fill="#E6AC39">
            <path d="M10.7067 13.5C10.6 13.5004 10.4949 13.4753 10.4 13.4266L6.99999 11.6466L3.59999 13.4266C3.48959 13.4847 3.36511 13.5106 3.24071 13.5014C3.11631 13.4923 2.99698 13.4484 2.89628 13.3748C2.79558 13.3012 2.71755 13.2008 2.67107 13.085C2.62459 12.9693 2.61151 12.8428 2.63333 12.72L3.29999 8.96664L0.553328 6.29997C0.467633 6.21446 0.406842 6.10722 0.377479 5.98977C0.348117 5.87232 0.351291 5.74909 0.386661 5.63331C0.425301 5.51482 0.496379 5.40954 0.591828 5.32941C0.687277 5.24928 0.803276 5.19751 0.926661 5.17997L4.72666 4.62664L6.39999 1.20664C6.45458 1.09393 6.53982 0.998868 6.64594 0.932356C6.75205 0.865843 6.87476 0.830566 6.99999 0.830566C7.12523 0.830566 7.24794 0.865843 7.35405 0.932356C7.46017 0.998868 7.5454 1.09393 7.59999 1.20664L9.29333 4.61997L13.0933 5.17331C13.2167 5.19084 13.3327 5.24262 13.4282 5.32275C13.5236 5.40288 13.5947 5.50816 13.6333 5.62664C13.6687 5.74242 13.6719 5.86565 13.6425 5.9831C13.6131 6.10055 13.5524 6.20779 13.4667 6.29331L10.72 8.95997L11.3867 12.7133C11.4105 12.8383 11.398 12.9675 11.3507 13.0856C11.3035 13.2037 11.2234 13.3059 11.12 13.38C10.9993 13.4646 10.8539 13.5068 10.7067 13.5ZM6.99999 10.2333C7.10686 10.2306 7.21258 10.2559 7.30666 10.3066L9.81999 11.64L9.33999 8.83331C9.32137 8.72614 9.32925 8.61604 9.36295 8.51262C9.39665 8.4092 9.45514 8.3156 9.53333 8.23997L11.5333 6.28664L8.73333 5.87331C8.63065 5.85263 8.53429 5.80806 8.45205 5.7432C8.36982 5.67834 8.30402 5.59501 8.25999 5.49997L6.99999 2.99997L5.73999 5.49997C5.69176 5.59578 5.62112 5.67853 5.53408 5.7412C5.44703 5.80387 5.34615 5.84462 5.23999 5.85997L2.43999 6.27331L4.43999 8.22664C4.51818 8.30226 4.57667 8.39587 4.61037 8.49929C4.64407 8.60271 4.65195 8.71281 4.63333 8.81997L4.15333 11.5933L6.66666 10.26C6.77316 10.2204 6.88856 10.2112 6.99999 10.2333Z"/>
        </symbol>

        <symbol id="star-filled" fill="#E6AC39">
            <path d="M10.7067 13.5C10.6 13.5004 10.4949 13.4753 10.4 13.4266L6.99999 11.6466L3.59999 13.4266C3.48959 13.4847 3.36511 13.5106 3.24071 13.5014C3.11631 13.4923 2.99698 13.4484 2.89628 13.3748C2.79558 13.3012 2.71755 13.2008 2.67107 13.085C2.62459 12.9693 2.61151 12.8428 2.63333 12.72L3.29999 8.96664L0.553328 6.29997C0.467633 6.21446 0.406842 6.10722 0.377479 5.98977C0.348117 5.87232 0.351291 5.74909 0.386661 5.63331C0.425301 5.51482 0.496379 5.40954 0.591828 5.32941C0.687277 5.24928 0.803276 5.19751 0.926661 5.17997L4.72666 4.62664L6.39999 1.20664C6.45458 1.09393 6.53982 0.998868 6.64594 0.932356C6.75205 0.865843 6.87476 0.830566 6.99999 0.830566C7.12523 0.830566 7.24794 0.865843 7.35405 0.932356C7.46017 0.998868 7.5454 1.09393 7.59999 1.20664L9.29333 4.61997L13.0933 5.17331C13.2167 5.19084 13.3327 5.24262 13.4282 5.32275C13.5236 5.40288 13.5947 5.50816 13.6333 5.62664C13.6687 5.74242 13.6719 5.86565 13.6425 5.9831C13.6131 6.10055 13.5524 6.20779 13.4667 6.29331L10.72 8.95997L11.3867 12.7133C11.4105 12.8383 11.398 12.9675 11.3507 13.0856C11.3035 13.2037 11.2234 13.3059 11.12 13.38C10.9993 13.4646 10.8539 13.5068 10.7067 13.5Z"
                  fill="#E6AC39"/>
        </symbol>
        <symbol id="arrow-back" fill="currentColor">
            <path d="M9.22003 12.6667C9.12043 12.667 9.02202 12.645 8.93204 12.6024C8.84205 12.5597 8.76277 12.4974 8.70003 12.42L5.48003 8.42002C5.38197 8.30073 5.32837 8.1511 5.32837 7.99669C5.32837 7.84227 5.38197 7.69264 5.48003 7.57335L8.81336 3.57335C8.92652 3.43721 9.08913 3.35159 9.26541 3.33534C9.4417 3.31909 9.61722 3.37353 9.75336 3.48669C9.88951 3.59985 9.97512 3.76245 9.99137 3.93874C10.0076 4.11502 9.95319 4.29054 9.84003 4.42669L6.86003 8.00002L9.74003 11.5734C9.82155 11.6712 9.87333 11.7904 9.88925 11.9167C9.90517 12.0431 9.88456 12.1714 9.82986 12.2864C9.77515 12.4014 9.68865 12.4984 9.58057 12.5658C9.4725 12.6332 9.34738 12.6682 9.22003 12.6667Z"/>
        </symbol>
        <symbol id="arrow-forward" fill="currentColor">
            <path d="M6.66668 12.6668C6.51091 12.6671 6.35995 12.6128 6.24001 12.5135C6.17251 12.4575 6.11671 12.3888 6.07581 12.3112C6.0349 12.2336 6.00971 12.1488 6.00166 12.0614C5.99361 11.9741 6.00286 11.8861 6.02889 11.8023C6.05492 11.7186 6.09721 11.6408 6.15335 11.5735L9.14001 8.00012L6.26001 4.42012C6.20464 4.35193 6.16328 4.27347 6.13833 4.18924C6.11337 4.10501 6.10531 4.01669 6.1146 3.92933C6.1239 3.84198 6.15036 3.75733 6.19248 3.68024C6.23459 3.60315 6.29153 3.53514 6.36001 3.48012C6.42899 3.41943 6.50977 3.37365 6.59728 3.34566C6.68478 3.31767 6.77713 3.30807 6.86853 3.31746C6.95993 3.32685 7.04839 3.35503 7.12838 3.40023C7.20837 3.44543 7.27815 3.50667 7.33335 3.58012L10.5533 7.58012C10.6514 7.69941 10.705 7.84904 10.705 8.00346C10.705 8.15787 10.6514 8.3075 10.5533 8.42679L7.22001 12.4268C7.15314 12.5075 7.06818 12.5712 6.97204 12.6129C6.8759 12.6546 6.77128 12.6731 6.66668 12.6668Z"/>
        </symbol>
        <symbol id="image">
            <path d="M12.5 2H4.5C3.96957 2 3.46086 2.21071 3.08579 2.58579C2.71071 2.96086 2.5 3.46957 2.5 4V12C2.5 12.5304 2.71071 13.0391 3.08579 13.4142C3.46086 13.7893 3.96957 14 4.5 14H12.5C13.0304 14 13.5391 13.7893 13.9142 13.4142C14.2893 13.0391 14.5 12.5304 14.5 12V4C14.5 3.46957 14.2893 2.96086 13.9142 2.58579C13.5391 2.21071 13.0304 2 12.5 2ZM4.5 3.33333H12.5C12.6768 3.33333 12.8464 3.40357 12.9714 3.5286C13.0964 3.65362 13.1667 3.82319 13.1667 4V9.57333L11.0333 7.75333C10.7028 7.48136 10.288 7.33266 9.86 7.33266C9.43195 7.33266 9.0172 7.48136 8.68667 7.75333L3.83333 11.8V4C3.83333 3.82319 3.90357 3.65362 4.0286 3.5286C4.15362 3.40357 4.32319 3.33333 4.5 3.33333ZM12.5 12.6667H4.87333L9.54 8.77333C9.62965 8.70677 9.73834 8.67083 9.85 8.67083C9.96166 8.67083 10.0704 8.70677 10.16 8.77333L13.1667 11.3333V12C13.1667 12.1768 13.0964 12.3464 12.9714 12.4714C12.8464 12.5964 12.6768 12.6667 12.5 12.6667Z" fill="white"/>
            <path d="M5.83333 6.6665C6.38561 6.6665 6.83333 6.21879 6.83333 5.6665C6.83333 5.11422 6.38561 4.6665 5.83333 4.6665C5.28104 4.6665 4.83333 5.11422 4.83333 5.6665C4.83333 6.21879 5.28104 6.6665 5.83333 6.6665Z" fill="white"/>
        </symbol>
        <symbol id="check-email">
            <path d="M95.5 48C95.5 74.2335 74.2335 95.5 48 95.5C21.7665 95.5 0.5 74.2335 0.5 48C0.5 21.7665 21.7665 0.5 48 0.5C74.2335 0.5 95.5 21.7665 95.5 48Z" fill="#8C61FF" fill-opacity="0.05" stroke="#BEA6FF"/>
            <path d="M77.8886 54.4543C77.7188 54.4521 77.5566 54.3836 77.4365 54.2635C77.3164 54.1435 77.2479 53.9812 77.2457 53.8114V44.5714C77.2457 44.4009 77.3135 44.2374 77.434 44.1169C77.5546 43.9963 77.7181 43.9286 77.8886 43.9286C78.0591 43.9286 78.2226 43.9963 78.3432 44.1169C78.4637 44.2374 78.5314 44.4009 78.5314 44.5714V53.82C78.5292 53.989 78.4605 54.1503 78.3402 54.269C78.2199 54.3877 78.0576 54.4543 77.8886 54.4543Z" fill="#BEA6FF"/>
            <path d="M77.8886 41.7772C77.7181 41.7772 77.5546 41.7094 77.434 41.5889C77.3135 41.4683 77.2457 41.3048 77.2457 41.1343V39.24C77.2457 39.0695 77.3135 38.906 77.434 38.7855C77.5546 38.6649 77.7181 38.5972 77.8886 38.5972C78.0591 38.5972 78.2226 38.6649 78.3432 38.7855C78.4637 38.906 78.5314 39.0695 78.5314 39.24V41.1429C78.5314 41.2269 78.5148 41.3101 78.4824 41.3876C78.45 41.4651 78.4024 41.5354 78.3426 41.5944C78.2828 41.6535 78.2119 41.7 78.1339 41.7314C78.056 41.7627 77.9726 41.7783 77.8886 41.7772Z" fill="#BEA6FF"/>
            <path d="M25.7863 32.5028H22.2274C21.859 32.5028 21.5601 32.2038 21.5601 31.8355C21.5601 31.4671 21.859 31.1682 22.2274 31.1682H25.7863C26.1547 31.1682 26.4536 31.4671 26.4536 31.8355C26.4536 32.2038 26.1547 32.5028 25.7863 32.5028Z" fill="#BEA6FF"/>
            <path d="M24.0073 34.2824C23.6389 34.2824 23.34 33.9834 23.34 33.6151V30.0561C23.34 29.6878 23.6389 29.3888 24.0073 29.3888C24.3756 29.3888 24.6746 29.6878 24.6746 30.0561V33.6151C24.6746 33.9834 24.3756 34.2824 24.0073 34.2824Z" fill="#BEA6FF"/>
            <path d="M36.8572 73.7143C37.3304 73.7143 37.7144 74.0983 37.7144 74.5714C37.7144 75.0446 37.3304 75.4286 36.8572 75.4286C36.3841 75.4286 36.0001 75.0446 36.0001 74.5714C36.0001 74.0983 36.3841 73.7143 36.8572 73.7143Z" fill="#BEA6FF"/>
            <path d="M31.7143 73.7143C32.1874 73.7143 32.5714 74.0983 32.5714 74.5714C32.5714 75.0446 32.1874 75.4286 31.7143 75.4286C31.2411 75.4286 30.8571 75.0446 30.8571 74.5714C30.8571 74.0983 31.2411 73.7143 31.7143 73.7143Z" fill="#BEA6FF"/>
            <path d="M26.5714 73.7143C27.0446 73.7143 27.4286 74.0983 27.4286 74.5714C27.4286 75.0446 27.0446 75.4286 26.5714 75.4286C26.0983 75.4286 25.7143 75.0446 25.7143 74.5714C25.7143 74.0983 26.0983 73.7143 26.5714 73.7143Z" fill="#BEA6FF"/>
            <path d="M47.8645 23.2418L23.7649 43.0406L47.8645 62.8486L71.9641 43.0406L47.8645 23.2418Z" fill="#333333"/>
            <path d="M47.8647 63.5436C47.7069 63.5303 47.5591 63.4613 47.4475 63.349L23.3479 43.541C23.2692 43.4753 23.2059 43.3931 23.1626 43.3002C23.1193 43.2072 23.0972 43.1059 23.0977 43.0033C23.099 42.9011 23.122 42.8004 23.1651 42.7077C23.2083 42.615 23.2706 42.5326 23.3479 42.4657L47.4475 22.667C47.575 22.553 47.74 22.4899 47.911 22.4899C48.082 22.4899 48.247 22.553 48.3745 22.667L72.4741 42.4657C72.5514 42.5326 72.6137 42.615 72.6569 42.7077C72.7 42.8004 72.723 42.9011 72.7243 43.0033C72.7248 43.1059 72.7027 43.2072 72.6594 43.3002C72.6161 43.3931 72.5528 43.4753 72.4741 43.541L48.3745 63.349C48.308 63.4155 48.2282 63.4673 48.1404 63.5008C48.0525 63.5343 47.9585 63.5489 47.8647 63.5436ZM24.8588 43.0404L47.8647 61.9493L70.8705 43.0404L47.8647 24.1408L24.8588 43.0404Z" fill="#BEA6FF"/>
            <path d="M65.0126 28.8032H30.717V69.5872H65.0126V28.8032Z" fill="#333333"/>
            <path d="M55.4098 40.853L43.6937 50.4836V69.5872H65.0126V40.853H55.4098Z" fill="#333333"/>
            <path d="M65.0588 70.2823H30.7632C30.5795 70.2799 30.4041 70.2059 30.2743 70.076C30.1444 69.9461 30.0704 69.7707 30.068 69.5871V28.8031C30.0728 28.622 30.1482 28.4499 30.2781 28.3235C30.4079 28.1971 30.582 28.1264 30.7632 28.1265H65.0588C65.2432 28.1265 65.42 28.1997 65.5504 28.3301C65.6807 28.4604 65.754 28.6373 65.754 28.8216V69.6056C65.7468 69.786 65.6708 69.9568 65.5414 70.0827C65.412 70.2086 65.2393 70.28 65.0588 70.2823ZM31.412 68.9104H64.3172V29.5168H31.412V68.9104Z" fill="#BEA6FF"/>
            <path d="M58.9875 35.0598H48.1705C47.9861 35.0598 47.8093 34.9865 47.679 34.8562C47.5486 34.7258 47.4753 34.549 47.4753 34.3646C47.4753 34.1802 47.5486 34.0034 47.679 33.873C47.8093 33.7427 47.9861 33.6694 48.1705 33.6694H58.9875C59.1719 33.6694 59.3487 33.7427 59.4791 33.873C59.6095 34.0034 59.6827 34.1802 59.6827 34.3646C59.6827 34.549 59.6095 34.7258 59.4791 34.8562C59.3487 34.9865 59.1719 35.0598 58.9875 35.0598Z" fill="#BEA6FF"/>
            <path d="M44.4628 35.0598H36.7417C36.5573 35.0598 36.3805 34.9865 36.2501 34.8562C36.1197 34.7258 36.0465 34.549 36.0465 34.3646C36.0465 34.1802 36.1197 34.0034 36.2501 33.873C36.3805 33.7427 36.5573 33.6694 36.7417 33.6694H44.4628C44.6472 33.6694 44.824 33.7427 44.9544 33.873C45.0848 34.0034 45.158 34.1802 45.158 34.3646C45.158 34.549 45.0848 34.7258 44.9544 34.8562C44.824 34.9865 44.6472 35.0598 44.4628 35.0598Z" fill="#BEA6FF"/>
            <path d="M58.9874 39.6944H51.878C51.6937 39.6944 51.5168 39.6211 51.3865 39.4907C51.2561 39.3604 51.1829 39.1836 51.1829 38.9992C51.1829 38.8148 51.2561 38.638 51.3865 38.5076C51.5168 38.3772 51.6937 38.304 51.878 38.304H58.9874C59.1718 38.304 59.3486 38.3772 59.479 38.5076C59.6094 38.638 59.6826 38.8148 59.6826 38.9992C59.6826 39.1836 59.6094 39.3604 59.479 39.4907C59.3486 39.6211 59.1718 39.6944 58.9874 39.6944Z" fill="#BEA6FF"/>
            <path d="M48.1705 39.6944H36.7417C36.5573 39.6944 36.3805 39.6211 36.2501 39.4907C36.1197 39.3604 36.0465 39.1836 36.0465 38.9992C36.0465 38.8148 36.1197 38.638 36.2501 38.5076C36.3805 38.3772 36.5573 38.304 36.7417 38.304H48.1705C48.3548 38.304 48.5317 38.3772 48.662 38.5076C48.7924 38.638 48.8657 38.8148 48.8657 38.9992C48.8657 39.1836 48.7924 39.3604 48.662 39.4907C48.5317 39.6211 48.3548 39.6944 48.1705 39.6944Z" fill="#BEA6FF"/>
            <path d="M58.9876 44.3289H46.3168C46.1324 44.3289 45.9556 44.2556 45.8252 44.1253C45.6948 43.9949 45.6216 43.8181 45.6216 43.6337C45.6216 43.4493 45.6948 43.2725 45.8252 43.1421C45.9556 43.0118 46.1324 42.9385 46.3168 42.9385H58.9876C59.172 42.9385 59.3488 43.0118 59.4792 43.1421C59.6095 43.2725 59.6828 43.4493 59.6828 43.6337C59.6828 43.8181 59.6095 43.9949 59.4792 44.1253C59.3488 44.2556 59.172 44.3289 58.9876 44.3289Z" fill="#BEA6FF"/>
            <path d="M42.609 44.3289H36.7417C36.5573 44.3289 36.3805 44.2556 36.2501 44.1253C36.1197 43.9949 36.0465 43.8181 36.0465 43.6337C36.0465 43.4493 36.1197 43.2725 36.2501 43.1421C36.3805 43.0118 36.5573 42.9385 36.7417 42.9385H42.609C42.7934 42.9385 42.9702 43.0118 43.1006 43.1421C43.231 43.2725 43.3042 43.4493 43.3042 43.6337C43.3042 43.8181 43.231 43.9949 43.1006 44.1253C42.9702 44.2556 42.7934 44.3289 42.609 44.3289Z" fill="#BEA6FF"/>
            <path d="M58.9875 48.9635H52.805C52.6207 48.9635 52.4438 48.8902 52.3135 48.7598C52.1831 48.6295 52.1099 48.4527 52.1099 48.2683C52.1099 48.0839 52.1831 47.9071 52.3135 47.7767C52.4438 47.6463 52.6207 47.5731 52.805 47.5731H58.9875C59.1719 47.5731 59.3487 47.6463 59.4791 47.7767C59.6095 47.9071 59.6827 48.0839 59.6827 48.2683C59.6827 48.4527 59.6095 48.6295 59.4791 48.7598C59.3487 48.8902 59.1719 48.9635 58.9875 48.9635Z" fill="#BEA6FF"/>
            <path d="M49.0974 48.9635H36.7417C36.5573 48.9635 36.3805 48.8902 36.2501 48.7598C36.1197 48.6295 36.0465 48.4527 36.0465 48.2683C36.0465 48.0839 36.1197 47.9071 36.2501 47.7767C36.3805 47.6463 36.5573 47.5731 36.7417 47.5731H49.0974C49.2818 47.5731 49.4586 47.6463 49.589 47.7767C49.7193 47.9071 49.7926 48.0839 49.7926 48.2683C49.7926 48.4527 49.7193 48.6295 49.589 48.7598C49.4586 48.8902 49.2818 48.9635 49.0974 48.9635Z" fill="#BEA6FF"/>
            <path d="M54.0472 53.598H41.6822C41.4979 53.598 41.321 53.5248 41.1907 53.3944C41.0603 53.264 40.9871 53.0872 40.9871 52.9028C40.9871 52.7185 41.0603 52.5416 41.1907 52.4113C41.321 52.2809 41.4979 52.2077 41.6822 52.2077H54.0472C54.2316 52.2077 54.4084 52.2809 54.5388 52.4113C54.6691 52.5416 54.7424 52.7185 54.7424 52.9028C54.7424 53.0872 54.6691 53.264 54.5388 53.3944C54.4084 53.5248 54.2316 53.598 54.0472 53.598Z" fill="#BEA6FF"/>
            <path d="M23.7649 43.0405V69.5871L39.9116 56.3138L23.7649 43.0405Z" fill="#333333"/>
            <path d="M55.8176 56.3138L71.9644 69.5871V43.0405L55.8176 56.3138Z" fill="#333333"/>
            <path d="M47.8645 62.8485L39.9116 56.3138L23.7649 69.5872H71.9641L55.8174 56.3138L47.8645 62.8485Z" fill="#333333"/>
            <path d="M28.3998 50.4927V65.7774L37.6967 58.1397L28.3998 50.4927Z" fill="#333333"/>
            <path d="M63.1958 57.8803L71.9643 65.0916V50.6782L63.1958 57.8803Z" fill="#333333"/>
            <path d="M23.7652 70.2823C23.662 70.2808 23.5604 70.2554 23.4686 70.2081C23.3499 70.1533 23.2493 70.0658 23.1787 69.9558C23.1081 69.8457 23.0704 69.7178 23.0701 69.5871V43.0404C23.0704 42.9097 23.1081 42.7818 23.1787 42.6718C23.2493 42.5617 23.3499 42.4742 23.4686 42.4194C23.5874 42.3614 23.7202 42.3384 23.8516 42.3532C23.9829 42.368 24.1073 42.4199 24.2102 42.5028L40.3569 55.7761C40.435 55.8423 40.4978 55.9246 40.5408 56.0175C40.5838 56.1103 40.6061 56.2114 40.6061 56.3138C40.6061 56.4161 40.5838 56.5172 40.5408 56.61C40.4978 56.7029 40.435 56.7852 40.3569 56.8514L24.2102 70.1154C24.0865 70.2223 23.9287 70.2814 23.7652 70.2823ZM24.4604 44.5142V68.1133L38.8182 56.3138L24.4604 44.5142Z" fill="#BEA6FF"/>
            <path d="M60.4244 60.0954L50.2747 68.4376L43.1931 62.6166L34.7212 69.587H71.9644L60.4244 60.0954Z" fill="#333333"/>
            <path d="M71.9644 70.2823C71.801 70.2814 71.6432 70.2223 71.5195 70.1154L55.3728 56.8606C55.2947 56.7945 55.2319 56.7122 55.1889 56.6193C55.1458 56.5265 55.1235 56.4254 55.1235 56.323C55.1235 56.2207 55.1458 56.1196 55.1889 56.0267C55.2319 55.9339 55.2947 55.8515 55.3728 55.7854L71.5473 42.5028C71.6502 42.4199 71.7746 42.368 71.9059 42.3532C72.0373 42.3384 72.1701 42.3614 72.2888 42.4194C72.4075 42.4742 72.5081 42.5617 72.5788 42.6718C72.6494 42.7818 72.6871 42.9097 72.6874 43.0404V69.5871C72.6871 69.7178 72.6494 69.8457 72.5788 69.9558C72.5081 70.0658 72.4075 70.1533 72.2888 70.2081C72.1887 70.2598 72.0771 70.2853 71.9644 70.2823ZM56.9114 56.3138L71.2692 68.1133V44.5142L56.9114 56.3138Z" fill="#BEA6FF"/>
            <path d="M71.9642 70.2823H23.7649C23.621 70.2816 23.4808 70.2367 23.3632 70.1539C23.2455 70.071 23.1561 69.9541 23.1069 69.8189C23.0604 69.6841 23.0559 69.5384 23.0939 69.4011C23.132 69.2637 23.2108 69.1411 23.32 69.0495L39.4668 55.7762C39.5942 55.6622 39.7592 55.5992 39.9302 55.5992C40.1012 55.5992 40.2662 55.6622 40.3937 55.7762L47.9017 61.9494L55.4096 55.7762C55.5371 55.6622 55.7021 55.5992 55.8731 55.5992C56.0441 55.5992 56.2091 55.6622 56.3365 55.7762L72.4833 69.0495C72.5924 69.1411 72.6713 69.2637 72.7094 69.4011C72.7474 69.5384 72.7429 69.6841 72.6965 69.8189C72.6435 69.9667 72.5427 70.0926 72.41 70.1765C72.2774 70.2605 72.1204 70.2977 71.9642 70.2823ZM25.7022 68.9105H70.027L55.7896 57.2129L48.2817 63.3861C48.1542 63.5001 47.9892 63.5632 47.8182 63.5632C47.6472 63.5632 47.4822 63.5001 47.3548 63.3861L39.8468 57.2129L25.7022 68.9105Z" fill="#BEA6FF"/>
            <path d="M46.3576 75.3599H42.7987C42.4303 75.3599 42.1313 75.061 42.1313 74.6926C42.1313 74.3243 42.4303 74.0253 42.7987 74.0253H46.3576C46.7259 74.0253 47.0249 74.3243 47.0249 74.6926C47.0249 75.061 46.7259 75.3599 46.3576 75.3599Z" fill="#BEA6FF"/>
            <path d="M44.5788 77.1395C44.2105 77.1395 43.9115 76.8406 43.9115 76.4722V72.9133C43.9115 72.5449 44.2105 72.246 44.5788 72.246C44.9472 72.246 45.2461 72.5449 45.2461 72.9133V76.4722C45.2461 76.8406 44.9472 77.1395 44.5788 77.1395Z" fill="#BEA6FF"/>
        </symbol>
        <symbol id="arrow-back-long">
            <path d="M10.6667 4.33335H2.76008L5.18008 1.42669C5.29324 1.29054 5.34768 1.11502 5.33143 0.938739C5.31518 0.762454 5.22956 0.599847 5.09341 0.486688C4.95727 0.373529 4.78175 0.319087 4.60547 0.335341C4.42918 0.351594 4.26657 0.43721 4.15341 0.573354L0.820081 4.57335C0.797655 4.60517 0.777601 4.63859 0.760081 4.67335C0.760081 4.70669 0.760081 4.72669 0.713415 4.76002C0.683197 4.83646 0.667375 4.91783 0.666748 5.00002C0.667375 5.08221 0.683197 5.16358 0.713415 5.24002C0.713415 5.27335 0.713415 5.29335 0.760081 5.32669C0.777601 5.36145 0.797655 5.39487 0.820081 5.42669L4.15341 9.42669C4.2161 9.50194 4.29459 9.56246 4.38331 9.60394C4.47203 9.64542 4.56881 9.66685 4.66675 9.66669C4.82252 9.66699 4.97347 9.61274 5.09341 9.51336C5.16092 9.45739 5.21672 9.38865 5.25762 9.31109C5.29852 9.23352 5.32372 9.14865 5.33177 9.06134C5.33982 8.97402 5.33057 8.88597 5.30454 8.80223C5.27851 8.7185 5.23622 8.64072 5.18008 8.57335L2.76008 5.66669H10.6667C10.8436 5.66669 11.0131 5.59645 11.1382 5.47143C11.2632 5.3464 11.3334 5.17683 11.3334 5.00002C11.3334 4.82321 11.2632 4.65364 11.1382 4.52862C11.0131 4.40359 10.8436 4.33335 10.6667 4.33335Z" fill="currentColor"/>
        </symbol>
    </defs>
</svg>

