<?xml version="1.0" encoding="UTF-8"?>
<svg xmlns="http://www.w3.org/2000/svg" xmlns:xlink="http://www.w3.org/1999/xlink" width="0" height="0">
    <defs>// for semantics: https://developer.mozilla.org/en-US/docs/Web/SVG/Element/defs
        <symbol id="checkbox">
            <path d="M16 0H2C0.89 0 0 0.9 0 2V16C0 17.1 0.89 18 2 18H16C17.11 18 18 17.1 18 16V2C18 0.9 17.11 0 16 0ZM7 14L2 9L3.41 7.59L7 11.17L14.59 3.58L16 5L7 14Z"
                  fill="currentColor"/>
        </symbol>
        <symbol id="close" fill="currentColor">
            <path d="M4.94 3.99998L7.80667 1.13998C7.9322 1.01445 8.00273 0.844182 8.00273 0.666648C8.00273 0.489113 7.9322 0.31885 7.80667 0.193315C7.68113 0.0677787 7.51087 -0.00274658 7.33333 -0.00274658C7.1558 -0.00274658 6.98554 0.0677787 6.86 0.193315L4 3.05998L1.14 0.193315C1.01446 0.0677787 0.844201 -0.00274658 0.666667 -0.00274658C0.489133 -0.00274658 0.318869 0.0677787 0.193334 0.193315C0.0677978 0.31885 -0.00272751 0.489113 -0.00272751 0.666648C-0.00272751 0.844182 0.0677978 1.01445 0.193334 1.13998L3.06 3.99998L0.193334 6.85998C0.130848 6.92196 0.081252 6.99569 0.0474062 7.07693C0.0135604 7.15817 -0.00386524 7.24531 -0.00386524 7.33331C-0.00386524 7.42132 0.0135604 7.50846 0.0474062 7.5897C0.081252 7.67094 0.130848 7.74467 0.193334 7.80665C0.255309 7.86913 0.329043 7.91873 0.410282 7.95258C0.491522 7.98642 0.578659 8.00385 0.666667 8.00385C0.754675 8.00385 0.841812 7.98642 0.923051 7.95258C1.00429 7.91873 1.07802 7.86913 1.14 7.80665L4 4.93998L6.86 7.80665C6.92198 7.86913 6.99571 7.91873 7.07695 7.95258C7.15819 7.98642 7.24533 8.00385 7.33333 8.00385C7.42134 8.00385 7.50848 7.98642 7.58972 7.95258C7.67096 7.91873 7.74469 7.86913 7.80667 7.80665C7.86915 7.74467 7.91875 7.67094 7.95259 7.5897C7.98644 7.50846 8.00387 7.42132 8.00387 7.33331C8.00387 7.24531 7.98644 7.15817 7.95259 7.07693C7.91875 6.99569 7.86915 6.92196 7.80667 6.85998L4.94 3.99998Z"
                  fill="white"/>
        </symbol>
        <symbol id="delete" fill="currentColor">
            <path d="M14 4.00108H10.6667V2.88775C10.651 2.46096 10.4668 2.05779 10.1544 1.76661C9.84195 1.47543 9.42683 1.32001 9 1.33442H7C6.57316 1.32001 6.15804 1.47543 5.84561 1.76661C5.53319 2.05779 5.34897 2.46096 5.33333 2.88775V4.00108H1.99999C1.82318 4.00108 1.65361 4.07132 1.52859 4.19634C1.40357 4.32137 1.33333 4.49094 1.33333 4.66775C1.33333 4.84456 1.40357 5.01413 1.52859 5.13915C1.65361 5.26418 1.82318 5.33441 1.99999 5.33441H2.66666V12.6677C2.66666 13.1982 2.87738 13.7069 3.25245 14.082C3.62752 14.457 4.13623 14.6677 4.66666 14.6677H11.3333C11.8638 14.6677 12.3725 14.457 12.7475 14.082C13.1226 13.7069 13.3333 13.1982 13.3333 12.6677V5.33441H14C14.1768 5.33441 14.3464 5.26418 14.4714 5.13915C14.5964 5.01413 14.6667 4.84456 14.6667 4.66775C14.6667 4.49094 14.5964 4.32137 14.4714 4.19634C14.3464 4.07132 14.1768 4.00108 14 4.00108ZM6.66666 2.88775C6.66666 2.78108 6.80666 2.66775 7 2.66775H9C9.19333 2.66775 9.33333 2.78108 9.33333 2.88775V4.00108H6.66666V2.88775ZM12 12.6677C12 12.8446 11.9298 13.0141 11.8047 13.1392C11.6797 13.2642 11.5101 13.3344 11.3333 13.3344H4.66666C4.48985 13.3344 4.32028 13.2642 4.19526 13.1392C4.07023 13.0141 3.99999 12.8446 3.99999 12.6677V5.33441H12V12.6677Z"
                  fill="currentColor"/>
        </symbol>
        <symbol id="edit" fill="currentColor">
            <g clip-path="url(#clip0_5928_6702)">
                <path d="M12.6667 13.3345H3.33334C3.15653 13.3345 2.98696 13.4047 2.86193 13.5297C2.73691 13.6548 2.66667 13.8243 2.66667 14.0011C2.66667 14.178 2.73691 14.3475 2.86193 14.4725C2.98696 14.5976 3.15653 14.6678 3.33334 14.6678H12.6667C12.8435 14.6678 13.0131 14.5976 13.1381 14.4725C13.2631 14.3475 13.3333 14.178 13.3333 14.0011C13.3333 13.8243 13.2631 13.6548 13.1381 13.5297C13.0131 13.4047 12.8435 13.3345 12.6667 13.3345Z"
                      fill="white"/>
                <path d="M3.33333 12.0012H3.39333L6.17333 11.7479C6.47786 11.7175 6.76269 11.5834 6.98 11.3679L12.98 5.36787C13.2129 5.12185 13.3387 4.79355 13.33 4.4549C13.3212 4.11625 13.1786 3.79488 12.9333 3.56121L11.1067 1.73454C10.8683 1.5106 10.5559 1.38211 10.2289 1.37351C9.90191 1.3649 9.58319 1.47679 9.33333 1.68787L3.33333 7.68787C3.11784 7.90518 2.98367 8.19001 2.95333 8.49454L2.66667 11.2745C2.65769 11.3722 2.67036 11.4706 2.70377 11.5628C2.73719 11.655 2.79053 11.7387 2.86 11.8079C2.92229 11.8697 2.99617 11.9185 3.0774 11.9517C3.15862 11.9849 3.2456 12.0017 3.33333 12.0012ZM10.18 2.66787L12 4.48787L10.6667 5.78787L8.88 4.00121L10.18 2.66787ZM4.24667 8.60787L8 4.88121L9.8 6.68121L6.06667 10.4145L4.06667 10.6012L4.24667 8.60787Z"
                      fill="white"/>
            </g>
            <defs>
                <clipPath id="clip0_5928_6702">
                    <rect width="16" height="16" fill="white" transform="translate(0 0.000976562)"/>
                </clipPath>
            </defs>
        </symbol>
        <symbol id="eye-outline" fill="currentColor">
            <g clip-path="url(#clip0_5661_2355)">
                <path d="M18.225 9.58334C17.6917 8.65834 14.7583 4.01667 9.775 4.16667C5.16667 4.28334 2.5 8.33334 1.775 9.58334C1.70186 9.71002 1.66335 9.85372 1.66335 10C1.66335 10.1463 1.70186 10.29 1.775 10.4167C2.3 11.325 5.10833 15.8333 10.0167 15.8333H10.225C14.8333 15.7167 17.5083 11.6667 18.225 10.4167C18.2981 10.29 18.3366 10.1463 18.3366 10C18.3366 9.85372 18.2981 9.71002 18.225 9.58334ZM10.1833 14.1667C6.59167 14.25 4.25 11.175 3.51667 10C4.35 8.65834 6.525 5.91667 9.85833 5.83334C13.4333 5.74167 15.7833 8.82501 16.525 10C15.6667 11.3417 13.5167 14.0833 10.1833 14.1667Z"
                      fill="white"/>
                <path d="M10 7.08334C9.42314 7.08334 8.85923 7.2544 8.37959 7.57489C7.89994 7.89538 7.52611 8.3509 7.30535 8.88385C7.0846 9.4168 7.02684 10.0032 7.13938 10.569C7.25192 11.1348 7.5297 11.6545 7.93761 12.0624C8.34551 12.4703 8.86521 12.7481 9.43099 12.8606C9.99676 12.9732 10.5832 12.9154 11.1162 12.6947C11.6491 12.4739 12.1046 12.1001 12.4251 11.6204C12.7456 11.1408 12.9167 10.5769 12.9167 10C12.9167 9.22646 12.6094 8.4846 12.0624 7.93762C11.5154 7.39063 10.7735 7.08334 10 7.08334ZM10 11.25C9.75277 11.25 9.5111 11.1767 9.30554 11.0393C9.09998 10.902 8.93976 10.7068 8.84515 10.4784C8.75054 10.25 8.72579 9.99862 8.77402 9.75615C8.82225 9.51367 8.9413 9.29094 9.11612 9.11613C9.29093 8.94131 9.51366 8.82226 9.75614 8.77403C9.99861 8.7258 10.2499 8.75055 10.4784 8.84516C10.7068 8.93977 10.902 9.09999 11.0393 9.30555C11.1767 9.51111 11.25 9.75278 11.25 10C11.25 10.3315 11.1183 10.6495 10.8839 10.8839C10.6495 11.1183 10.3315 11.25 10 11.25Z"
                      fill="white"/>
            </g>
            <defs>
                <clipPath id="clip0_5661_2355">
                    <rect width="20" height="20" fill="white"/>
                </clipPath>
            </defs>
        </symbol>
        <symbol id="log-out">
            <g clip-path="url(#clip0_5928_3635)">
                <path d="M4.66669 4.00081C4.8435 4.00081 5.01307 3.93058 5.13809 3.80555C5.26312 3.68053 5.33335 3.51096 5.33335 3.33415C5.33335 3.15734 5.26312 2.98777 5.13809 2.86274C5.01307 2.73772 4.8435 2.66748 4.66669 2.66748H3.33335C3.15654 2.66748 2.98697 2.73772 2.86195 2.86274C2.73693 2.98777 2.66669 3.15734 2.66669 3.33415V12.6675C2.66669 12.8443 2.73693 13.0139 2.86195 13.1389C2.98697 13.2639 3.15654 13.3341 3.33335 13.3341H4.66669C4.8435 13.3341 5.01307 13.2639 5.13809 13.1389C5.26312 13.0139 5.33335 12.8443 5.33335 12.6675C5.33335 12.4907 5.26312 12.3211 5.13809 12.1961C5.01307 12.0711 4.8435 12.0008 4.66669 12.0008H4.00002V4.00081H4.66669Z" fill="white"/>
                <path d="M13.88 7.61411L12 4.94745C11.898 4.80372 11.7433 4.70621 11.5697 4.67623C11.396 4.64625 11.2176 4.68623 11.0733 4.78745C11.0012 4.83797 10.9399 4.90228 10.8927 4.97665C10.8456 5.05103 10.8137 5.134 10.7988 5.22077C10.784 5.30755 10.7864 5.39641 10.8061 5.48223C10.8257 5.56805 10.8622 5.64913 10.9133 5.72078L12.06 7.33411H6.66667C6.48986 7.33411 6.32029 7.40435 6.19526 7.52938C6.07024 7.6544 6 7.82397 6 8.00078C6 8.17759 6.07024 8.34716 6.19526 8.47219C6.32029 8.59721 6.48986 8.66745 6.66667 8.66745H12L10.8 10.2674C10.7475 10.3375 10.7093 10.4172 10.6875 10.502C10.6658 10.5868 10.661 10.6751 10.6734 10.7617C10.6857 10.8484 10.7151 10.9318 10.7597 11.0071C10.8043 11.0824 10.8633 11.1483 10.9333 11.2008C11.0487 11.2873 11.1891 11.3341 11.3333 11.3341C11.4368 11.3341 11.5389 11.31 11.6315 11.2637C11.724 11.2174 11.8046 11.1502 11.8667 11.0674L13.8667 8.40078C13.952 8.28803 13.9994 8.15104 14.0018 8.00962C14.0041 7.86821 13.9615 7.7297 13.88 7.61411Z" fill="white"/>
            </g>
            <defs>
                <clipPath id="clip0_5928_3635">
                    <rect width="16" height="16" fill="white" transform="translate(0 0.000976562)"/>
                </clipPath>
            </defs>
        </symbol>
        <symbol id="more">
                <circle cx="12" cy="12" r="8.5" stroke="white"/>
                <g clip-path="url(#clip0_52363_14059)">
                    <path d="M12 13C12.5523 13 13 12.5523 13 12C13 11.4477 12.5523 11 12 11C11.4477 11 11 11.4477 11 12C11 12.5523 11.4477 13 12 13Z" fill="white"/>
                    <path d="M12 9.5C12.5523 9.5 13 9.05228 13 8.5C13 7.94772 12.5523 7.5 12 7.5C11.4477 7.5 11 7.94772 11 8.5C11 9.05228 11.4477 9.5 12 9.5Z" fill="white"/>
                    <path d="M12 16.5C12.5523 16.5 13 16.0523 13 15.5C13 14.9477 12.5523 14.5 12 14.5C11.4477 14.5 11 14.9477 11 15.5C11 16.0523 11.4477 16.5 12 16.5Z" fill="white"/>
                </g>
                <defs>
                    <clipPath id="clip0_52363_14059">
                        <rect width="12" height="12" fill="white" transform="translate(6 6)"/>
                    </clipPath>
                </defs>
        </symbol>
        <symbol id="person-outline" fill="currentColor">
            <g clip-path="url(#clip0_5928_3613)">
                <path d="M7.99998 7.33431C8.5274 7.33431 9.04297 7.17791 9.4815 6.8849C9.92003 6.59188 10.2618 6.1754 10.4637 5.68813C10.6655 5.20086 10.7183 4.66469 10.6154 4.1474C10.5125 3.63012 10.2585 3.15497 9.8856 2.78203C9.51266 2.40909 9.0375 2.15511 8.52022 2.05222C8.00294 1.94932 7.46676 2.00213 6.97949 2.20397C6.49222 2.4058 6.07574 2.74759 5.78273 3.18612C5.48971 3.62465 5.33331 4.14023 5.33331 4.66764C5.33331 5.37489 5.61426 6.05317 6.11436 6.55326C6.61446 7.05336 7.29274 7.33431 7.99998 7.33431ZM7.99998 3.33431C8.26369 3.33431 8.52147 3.41251 8.74074 3.55902C8.96001 3.70553 9.1309 3.91376 9.23182 4.1574C9.33274 4.40103 9.35914 4.66912 9.30769 4.92776C9.25625 5.18641 9.12926 5.42398 8.94279 5.61045C8.75632 5.79692 8.51874 5.92391 8.2601 5.97536C8.00146 6.0268 7.73337 6.0004 7.48974 5.89948C7.2461 5.79857 7.03786 5.62767 6.89135 5.4084C6.74485 5.18914 6.66665 4.93135 6.66665 4.66764C6.66665 4.31402 6.80712 3.97488 7.05717 3.72484C7.30722 3.47479 7.64636 3.33431 7.99998 3.33431Z" fill="white"/>
                <path d="M7.99998 8.66748C6.7623 8.66748 5.57532 9.15915 4.70015 10.0343C3.82498 10.9095 3.33331 12.0965 3.33331 13.3341C3.33331 13.511 3.40355 13.6805 3.52858 13.8056C3.6536 13.9306 3.82317 14.0008 3.99998 14.0008C4.17679 14.0008 4.34636 13.9306 4.47138 13.8056C4.59641 13.6805 4.66665 13.511 4.66665 13.3341C4.66665 12.4501 5.01784 11.6022 5.64296 10.9771C6.26808 10.352 7.11592 10.0008 7.99998 10.0008C8.88403 10.0008 9.73188 10.352 10.357 10.9771C10.9821 11.6022 11.3333 12.4501 11.3333 13.3341C11.3333 13.511 11.4036 13.6805 11.5286 13.8056C11.6536 13.9306 11.8232 14.0008 12 14.0008C12.1768 14.0008 12.3464 13.9306 12.4714 13.8056C12.5964 13.6805 12.6666 13.511 12.6666 13.3341C12.6666 12.0965 12.175 10.9095 11.2998 10.0343C10.4246 9.15915 9.23766 8.66748 7.99998 8.66748Z" fill="white"/>
            </g>
            <defs>
                <clipPath id="clip0_5928_3613">
                    <rect width="16" height="16" fill="white" transform="translate(0 0.000976562)"/>
                </clipPath>
            </defs>
        </symbol>
        <symbol id="play-circle-icon" fill="currentColor">
            <g clip-path="url(#clip0_5928_6698)">
                <path d="M8 1.33447C6.68146 1.33447 5.39252 1.72547 4.2962 2.45801C3.19987 3.19055 2.34539 4.23174 1.8408 5.44992C1.33622 6.66809 1.20419 8.00853 1.46143 9.30174C1.71866 10.5949 2.3536 11.7828 3.28595 12.7152C4.2183 13.6475 5.40619 14.2825 6.6994 14.5397C7.9926 14.7969 9.33305 14.6649 10.5512 14.1603C11.7694 13.6558 12.8106 12.8013 13.5431 11.7049C14.2757 10.6086 14.6667 9.31968 14.6667 8.00114C14.6667 7.12566 14.4942 6.25875 14.1592 5.44992C13.8242 4.64108 13.3331 3.90615 12.714 3.28709C12.095 2.66804 11.3601 2.17697 10.5512 1.84194C9.74238 1.50691 8.87548 1.33447 8 1.33447ZM8 13.3345C6.94516 13.3345 5.91402 13.0217 5.03696 12.4356C4.15989 11.8496 3.47631 11.0167 3.07264 10.0421C2.66897 9.06758 2.56336 7.99522 2.76914 6.96066C2.97493 5.92609 3.48288 4.97578 4.22876 4.2299C4.97464 3.48402 5.92495 2.97607 6.95952 2.77028C7.99408 2.5645 9.06644 2.67011 10.041 3.07378C11.0155 3.47745 11.8485 4.16104 12.4345 5.0381C13.0205 5.91516 13.3333 6.94631 13.3333 8.00114C13.3333 9.41563 12.7714 10.7722 11.7712 11.7724C10.771 12.7726 9.41449 13.3345 8 13.3345Z" fill="white"/>
                <path d="M8.22666 4.9674C8.06331 4.81687 7.85932 4.71765 7.64004 4.68209C7.42077 4.64654 7.19588 4.6762 6.99333 4.7674C6.7967 4.84694 6.62825 4.9833 6.5095 5.15905C6.39075 5.3348 6.32709 5.54196 6.32666 5.75407V10.2474C6.32709 10.4595 6.39075 10.6667 6.5095 10.8424C6.62825 11.0182 6.7967 11.1545 6.99333 11.2341C7.13784 11.2996 7.29464 11.3337 7.45333 11.3341C7.73927 11.3328 8.01467 11.226 8.22666 11.0341L10.6667 8.7874C10.7758 8.68747 10.8629 8.56593 10.9226 8.43049C10.9822 8.29506 11.013 8.14871 11.013 8.00074C11.013 7.85276 10.9822 7.70641 10.9226 7.57098C10.8629 7.43555 10.7758 7.314 10.6667 7.21407L8.22666 4.9674ZM7.66666 9.73407V6.2674L9.53999 8.00074L7.66666 9.73407Z" fill="white"/>
            </g>
            <defs>
                <clipPath id="clip0_5928_6698">
                    <rect width="16" height="16" fill="white" transform="translate(0 0.000976562)"/>
                </clipPath>
            </defs>
        </symbol>
        <symbol id="search" fill="currentColor">
            <path d="M15.2583 14.075L12.425 11.25C13.3392 10.0854 13.8352 8.64721 13.8333 7.16667C13.8333 5.84813 13.4423 4.5592 12.7098 3.46287C11.9773 2.36654 10.9361 1.51206 9.71789 1.00747C8.49972 0.502889 7.15927 0.370866 5.86607 0.628101C4.57286 0.885336 3.38497 1.52027 2.45262 2.45262C1.52027 3.38497 0.885336 4.57286 0.628101 5.86607C0.370866 7.15927 0.502889 8.49972 1.00747 9.71789C1.51206 10.9361 2.36654 11.9773 3.46287 12.7098C4.5592 13.4423 5.84813 13.8333 7.16667 13.8333C8.64721 13.8352 10.0854 13.3392 11.25 12.425L14.075 15.2583C14.1525 15.3364 14.2446 15.3984 14.3462 15.4407C14.4477 15.4831 14.5567 15.5048 14.6667 15.5048C14.7767 15.5048 14.8856 15.4831 14.9871 15.4407C15.0887 15.3984 15.1809 15.3364 15.2583 15.2583C15.3364 15.1809 15.3984 15.0887 15.4407 14.9871C15.4831 14.8856 15.5048 14.7767 15.5048 14.6667C15.5048 14.5567 15.4831 14.4477 15.4407 14.3462C15.3984 14.2446 15.3364 14.1525 15.2583 14.075ZM2.16667 7.16667C2.16667 6.17776 2.45991 5.21106 3.00932 4.38882C3.55873 3.56657 4.33962 2.92571 5.25325 2.54727C6.16688 2.16883 7.17222 2.06982 8.14212 2.26274C9.11203 2.45567 10.0029 2.93187 10.7022 3.63114C11.4015 4.3304 11.8777 5.22131 12.0706 6.19122C12.2635 7.16112 12.1645 8.16646 11.7861 9.08009C11.4076 9.99372 10.7668 10.7746 9.94452 11.324C9.12227 11.8734 8.15558 12.1667 7.16667 12.1667C5.84059 12.1667 4.56882 11.6399 3.63114 10.7022C2.69345 9.76452 2.16667 8.49275 2.16667 7.16667Z" fill="#808080"/>
        </symbol>
    </defs>
</svg>

