<svg width="12" height="10" viewBox="0 0 12 10" fill="none" xmlns="http://www.w3.org/2000/svg">
<path d="M10.6667 4.33335H2.76008L5.18008 1.42669C5.29324 1.29054 5.34768 1.11502 5.33143 0.938739C5.31518 0.762454 5.22956 0.599847 5.09341 0.486688C4.95727 0.373529 4.78175 0.319087 4.60547 0.335341C4.42918 0.351594 4.26657 0.43721 4.15341 0.573354L0.820081 4.57335C0.797655 4.60517 0.777601 4.63859 0.760081 4.67335C0.760081 4.70669 0.760081 4.72669 0.713415 4.76002C0.683197 4.83646 0.667375 4.91783 0.666748 5.00002C0.667375 5.08221 0.683197 5.16358 0.713415 5.24002C0.713415 5.27335 0.713415 5.29335 0.760081 5.32669C0.777601 5.36145 0.797655 5.39487 0.820081 5.42669L4.15341 9.42669C4.2161 9.50194 4.29459 9.56246 4.38331 9.60394C4.47203 9.64542 4.56881 9.66685 4.66675 9.66669C4.82252 9.66699 4.97347 9.61274 5.09341 9.51336C5.16092 9.45739 5.21672 9.38865 5.25762 9.31109C5.29852 9.23352 5.32372 9.14865 5.33177 9.06134C5.33982 8.97402 5.33057 8.88597 5.30454 8.80223C5.27851 8.7185 5.23622 8.64072 5.18008 8.57335L2.76008 5.66669H10.6667C10.8436 5.66669 11.0131 5.59645 11.1382 5.47143C11.2632 5.3464 11.3334 5.17683 11.3334 5.00002C11.3334 4.82321 11.2632 4.65364 11.1382 4.52862C11.0131 4.40359 10.8436 4.33335 10.6667 4.33335Z" fill="white"/>
</svg>
