<svg width="8" height="8" viewBox="0 0 8 8" fill="none" xmlns="http://www.w3.org/2000/svg">
    <path d="M4.94 3.99998L7.80667 1.13998C7.9322 1.01445 8.00273 0.844182 8.00273 0.666648C8.00273 0.489113 7.9322 0.31885 7.80667 0.193315C7.68113 0.0677787 7.51087 -0.00274658 7.33333 -0.00274658C7.1558 -0.00274658 6.98554 0.0677787 6.86 0.193315L4 3.05998L1.14 0.193315C1.01446 0.0677787 0.844201 -0.00274658 0.666667 -0.00274658C0.489133 -0.00274658 0.318869 0.0677787 0.193334 0.193315C0.0677978 0.31885 -0.00272751 0.489113 -0.00272751 0.666648C-0.00272751 0.844182 0.0677978 1.01445 0.193334 1.13998L3.06 3.99998L0.193334 6.85998C0.130848 6.92196 0.081252 6.99569 0.0474062 7.07693C0.0135604 7.15817 -0.00386524 7.24531 -0.00386524 7.33331C-0.00386524 7.42132 0.0135604 7.50846 0.0474062 7.5897C0.081252 7.67094 0.130848 7.74467 0.193334 7.80665C0.255309 7.86913 0.329043 7.91873 0.410282 7.95258C0.491522 7.98642 0.578659 8.00385 0.666667 8.00385C0.754675 8.00385 0.841812 7.98642 0.923051 7.95258C1.00429 7.91873 1.07802 7.86913 1.14 7.80665L4 4.93998L6.86 7.80665C6.92198 7.86913 6.99571 7.91873 7.07695 7.95258C7.15819 7.98642 7.24533 8.00385 7.33333 8.00385C7.42134 8.00385 7.50848 7.98642 7.58972 7.95258C7.67096 7.91873 7.74469 7.86913 7.80667 7.80665C7.86915 7.74467 7.91875 7.67094 7.95259 7.5897C7.98644 7.50846 8.00387 7.42132 8.00387 7.33331C8.00387 7.24531 7.98644 7.15817 7.95259 7.07693C7.91875 6.99569 7.86915 6.92196 7.80667 6.85998L4.94 3.99998Z" fill="white"/>
</svg>
